<svg xmlns="http://www.w3.org/2000/svg" viewBox="0 0 100 100">
  <defs>
    <linearGradient id="goldGradient" x1="0%" y1="0%" x2="100%" y2="100%">
      <stop offset="0%" style="stop-color:#f59e0b;stop-opacity:1" />
      <stop offset="100%" style="stop-color:#d97706;stop-opacity:1" />
    </linearGradient>
  </defs>

  <!-- Background circle -->
  <circle cx="50" cy="50" r="48" fill="url(#goldGradient)"/>

  <!-- Dollar sign -->
  <path d="M 50 20 L 50 80 M 35 30 Q 35 25 40 25 L 60 25 Q 65 25 65 30 Q 65 35 60 35 L 40 40 Q 35 42 35 47 Q 35 52 40 52 L 60 52 Q 65 52 65 57 Q 65 62 60 62 L 40 62 Q 35 62 35 57"
        stroke="white"
        stroke-width="6"
        stroke-linecap="round"
        stroke-linejoin="round"
        fill="none"/>

  <!-- Growth arrow -->
  <path d="M 70 70 L 85 55 L 80 55 L 80 45 L 75 45 L 75 55 L 70 55 Z"
        fill="white"
        opacity="0.9"/>
</svg>
